<svg width="30" height="33" viewBox="0 0 30 33" fill="none" xmlns="http://www.w3.org/2000/svg">
<path d="M14.9776 32.8964L3.14532 29.6117L0.508545 0.0371094H29.4822L26.8426 29.6071L14.9776 32.8964Z" fill="#264DE4"/>
<path d="M24.5829 27.7241L26.8385 2.45526H14.9954V30.3822L24.5829 27.7241Z" fill="#2965F1"/>
<path d="M6.55328 13.424L6.87838 17.0512H14.9954V13.424H6.55328Z" fill="#EBEBEB"/>
<path d="M5.90009 6.08252L6.22981 9.70976H14.9954V6.08252H5.90009Z" fill="#EBEBEB"/>
<path d="M14.9954 22.8443L14.9795 22.8485L10.9398 21.7578L10.6816 18.8649H7.04047L7.54864 24.5601L14.9787 26.6227L14.9954 26.6181V22.8443Z" fill="#EBEBEB"/>
<path d="M23.4142 13.4241L24.069 6.08252H14.9828V9.70976H20.0939L19.7639 13.4241H14.9828V17.0512H19.4493L19.0283 21.7554L14.9828 22.8473V26.621L22.4188 24.5601L22.4734 23.9473L23.3257 14.3981L23.4142 13.4241Z" fill="white"/>
</svg>
